<svg xmlns="http://www.w3.org/2000/svg" width="375" height="812" viewBox="0 0 375 812">
  <defs>
    <linearGradient id="grad1" x1="0%" y1="0%" x2="100%" y2="100%">
      <stop offset="0%" style="stop-color:#7c3aed;stop-opacity:1" />
      <stop offset="100%" style="stop-color:#ec4899;stop-opacity:1" />
    </linearGradient>
    <linearGradient id="grad2" x1="0%" y1="0%" x2="100%" y2="100%">
      <stop offset="0%" style="stop-color:#1a1a2e;stop-opacity:1" />
      <stop offset="100%" style="stop-color:#2d1b4e;stop-opacity:1" />
    </linearGradient>
    <filter id="glow">
      <feGaussianBlur stdDeviation="4" result="coloredBlur"/>
      <feMerge><feMergeNode in="coloredBlur"/><feMergeNode in="SourceGraphic"/></feMerge>
    </filter>
  </defs>

  <!-- Background -->
  <rect width="375" height="812" fill="#0f0f1a" rx="20"/>

  <!-- Header -->
  <rect width="375" height="52" fill="#0f0f1a"/>
  <line x1="0" y1="52" x2="375" y2="52" stroke="#7c3aed" stroke-width="1" opacity="0.3"/>
  <circle cx="28" cy="26" r="16" fill="#1a1a2e"/>
  <text x="28" y="32" text-anchor="middle" font-size="14" fill="#888">←</text>
  <text x="187" y="34" text-anchor="middle" font-family="Arial Black" font-size="16" font-weight="900" fill="white">Prima &amp; Dopo</text>
  <rect x="290" y="12" width="72" height="28" rx="14" fill="url(#grad1)"/>
  <text x="326" y="30" text-anchor="middle" font-family="Arial" font-size="11" font-weight="700" fill="white">✨ Challenge</text>

  <!-- Card 1: Before/After -->
  <rect x="12" y="64" width="351" height="320" rx="16" fill="#1a1a2e" stroke="#7c3aed" stroke-width="0.5" stroke-opacity="0.3"/>
  <!-- Slider image area -->
  <rect x="12" y="64" width="351" height="220" rx="16" fill="url(#grad2)"/>
  <!-- Before half -->
  <rect x="12" y="64" width="175" height="220" fill="#2a1540"/>
  <text x="99" y="174" text-anchor="middle" font-size="80">😐</text>
  <!-- After half -->
  <rect x="187" y="64" width="176" height="220" fill="#1a2a40"/>
  <text x="275" y="174" text-anchor="middle" font-size="80">😍</text>
  <!-- Divider line -->
  <line x1="187" y1="64" x2="187" y2="284" stroke="white" stroke-width="2"/>
  <circle cx="187" cy="174" r="16" fill="url(#grad1)" filter="url(#glow)"/>
  <text x="187" y="179" text-anchor="middle" font-family="Arial" font-size="13" fill="white">⟺</text>
  <!-- Labels -->
  <rect x="20" y="72" width="36" height="18" rx="9" fill="rgba(0,0,0,0.5)"/>
  <text x="38" y="84" text-anchor="middle" font-family="Arial" font-size="10" font-weight="700" fill="white">Prima</text>
  <rect x="319" y="72" width="36" height="18" rx="9" fill="rgba(0,0,0,0.5)"/>
  <text x="337" y="84" text-anchor="middle" font-family="Arial" font-size="10" font-weight="700" fill="white">Dopo</text>
  <!-- Replicable badge -->
  <rect x="20" y="252" width="80" height="20" rx="10" fill="rgba(124,58,237,0.3)"/>
  <text x="60" y="264" text-anchor="middle" font-family="Arial" font-size="10" font-weight="700" fill="#a78bfa">✨ Replicabile</text>

  <!-- Card 1 info -->
  <text x="24" y="308" font-family="Arial Black" font-size="13" font-weight="900" fill="white">Balayage Transformation</text>
  <text x="24" y="325" font-family="Arial" font-size="11" fill="#888">di Martina Rossi · Balayage Caramel</text>
  <rect x="24" y="336" width="38" height="18" rx="9" fill="#1e1e2e"/>
  <text x="43" y="348" text-anchor="middle" font-family="Arial" font-size="10" fill="#888">€120</text>
  <rect x="68" y="336" width="36" height="18" rx="9" fill="#1e1e2e"/>
  <text x="86" y="348" text-anchor="middle" font-family="Arial" font-size="10" fill="#888">⏱ 2h</text>
  <rect x="110" y="336" width="48" height="18" rx="9" fill="#1e1e2e"/>
  <text x="134" y="348" text-anchor="middle" font-family="Arial" font-size="10" fill="#888">Color</text>
  <!-- Actions -->
  <rect x="24" y="360" width="70" height="28" rx="10" fill="rgba(236,72,153,0.15)"/>
  <text x="59" y="378" text-anchor="middle" font-family="Arial" font-size="12" fill="#ec4899">❤️ 234</text>
  <rect x="102" y="360" width="36" height="28" rx="10" fill="#1e1e2e"/>
  <text x="120" y="378" text-anchor="middle" font-size="16" fill="#888">🔖</text>
  <rect x="248" y="360" width="115" height="28" rx="10" fill="url(#grad1)"/>
  <text x="305" y="378" text-anchor="middle" font-family="Arial" font-size="11" font-weight="700" fill="white">📍 Prova vicino a te</text>

  <!-- Card 2 -->
  <rect x="12" y="396" width="351" height="300" rx="16" fill="#1a1a2e" stroke="#7c3aed" stroke-width="0.5" stroke-opacity="0.3"/>
  <rect x="12" y="396" width="351" height="200" rx="16" fill="url(#grad2)"/>
  <rect x="12" y="396" width="175" height="200" fill="#402040"/>
  <text x="99" y="496" text-anchor="middle" font-size="80">😶</text>
  <rect x="187" y="396" width="176" height="200" fill="#202a40"/>
  <text x="275" y="496" text-anchor="middle" font-size="80">🤩</text>
  <line x1="187" y1="396" x2="187" y2="596" stroke="white" stroke-width="2"/>
  <circle cx="187" cy="496" r="16" fill="url(#grad1)" filter="url(#glow)"/>
  <text x="187" y="501" text-anchor="middle" font-family="Arial" font-size="13" fill="white">⟺</text>
  <rect x="20" y="404" width="36" height="18" rx="9" fill="rgba(0,0,0,0.5)"/>
  <text x="38" y="416" text-anchor="middle" font-family="Arial" font-size="10" font-weight="700" fill="white">Prima</text>
  <rect x="319" y="404" width="36" height="18" rx="9" fill="rgba(0,0,0,0.5)"/>
  <text x="337" y="416" text-anchor="middle" font-family="Arial" font-size="10" font-weight="700" fill="white">Dopo</text>
  <text x="24" y="630" font-family="Arial Black" font-size="13" font-weight="900" fill="white">Color Correction</text>
  <text x="24" y="648" font-family="Arial" font-size="11" fill="#888">di Beauty Salon · Platinum Correction</text>
  <rect x="24" y="658" width="36" height="18" rx="9" fill="#1e1e2e"/>
  <text x="42" y="670" text-anchor="middle" font-family="Arial" font-size="10" fill="#888">€95</text>
  <rect x="248" y="658" width="115" height="28" rx="10" fill="url(#grad1)"/>
  <text x="305" y="676" text-anchor="middle" font-family="Arial" font-size="11" font-weight="700" fill="white">📍 Prova vicino a te</text>

  <!-- Bottom Nav -->
  <rect x="0" y="752" width="375" height="60" fill="#0f0f1a" opacity="0.97"/>
  <line x1="0" y1="752" x2="375" y2="752" stroke="#7c3aed" stroke-width="1" opacity="0.3"/>
  <text x="37" y="778" text-anchor="middle" font-size="22" fill="#666">🏠</text>
  <text x="37" y="796" text-anchor="middle" font-family="Arial" font-size="10" fill="#666">Home</text>
  <text x="112" y="778" text-anchor="middle" font-size="22" fill="#666">🔍</text>
  <text x="112" y="796" text-anchor="middle" font-family="Arial" font-size="10" fill="#666">Cerca</text>
  <circle cx="187" cy="775" r="20" fill="url(#grad1)"/>
  <text x="187" y="781" text-anchor="middle" font-size="20" fill="white">+</text>
  <text x="262" y="778" text-anchor="middle" font-size="22" fill="#666">💬</text>
  <text x="262" y="796" text-anchor="middle" font-family="Arial" font-size="10" fill="#666">Chat</text>
  <text x="337" y="778" text-anchor="middle" font-size="22" fill="#666">👤</text>
  <text x="337" y="796" text-anchor="middle" font-family="Arial" font-size="10" fill="#666">Profilo</text>
</svg>
